<svg xmlns="http://www.w3.org/2000/svg" viewBox="0 0 64 64" id="caterpillar">
  <path fill="#52ffaa" d="M51.14 15a8.86 8.86 0 0 0-8.85 8.86 8.76 8.76 0 0 0 1.42 4.8v5.93a4.85 4.85 0 0 1-4.86 4.86H11.79A7.79 7.79 0 0 0 4 47.24a7.45 7.45 0 0 0 7.79 7.08h32.66a14.13 14.13 0 0 0 14.13-14.13V28.66A8.86 8.86 0 0 0 51.14 15Z"></path>
  <path fill="#17e198" d="M51.14 15a9.43 9.43 0 0 0-2 .23 8.86 8.86 0 0 1 5.44 13.44v11.52a14.13 14.13 0 0 1-14.13 14.13h4a14.13 14.13 0 0 0 14.13-14.13V28.66A8.86 8.86 0 0 0 51.14 15Z"></path>
  <path fill="#1b212d" d="M55.42 15v-2.87a1.47 1.47 0 0 1 2.94 0 1 1 0 0 0 2 0 3.47 3.47 0 0 0-6.94 0v2.14a9.38 9.38 0 0 0-4.55 0v-2.14a3.47 3.47 0 0 0-6.94 0 1 1 0 1 0 2 0 1.47 1.47 0 0 1 2.94 0V15a9.84 9.84 0 0 0-4.16 14v5.65a3.86 3.86 0 0 1-3.85 3.86H11.79A8.81 8.81 0 0 0 3 47.29a8.45 8.45 0 0 0 8.79 8h32.66a15.18 15.18 0 0 0 15.13-15.1V28.94a9.84 9.84 0 0 0-4.16-14ZM11.74 53.32A6.45 6.45 0 0 1 5 47.24a6.8 6.8 0 0 1 6.79-6.79h1.69c-1.33 2.23-2.73 6.56.37 12.87Zm4.36 0c-4.1-7.51-1.1-11.8-.17-12.87h11.15c-1.33 2.23-2.73 6.56.37 12.87Zm28.35 0H29.7c-4.1-7.51-1.1-11.8-.16-12.87h9.55c-.18 2.21-.14 6.61 2.51 9.81a9.44 9.44 0 0 0 4.45 3 14.17 14.17 0 0 1-1.6.06Zm13.13-13.13a13.12 13.12 0 0 1-7.19 11.69c-3.25-.05-5.69-1-7.24-2.89-2.46-3-2.18-7.47-2-9A6 6 0 0 0 43 38.74a6.8 6.8 0 0 0 .5-.59 12.34 12.34 0 0 0 6.84 2 16.58 16.58 0 0 0 7.24-1.81Zm.17-12.1A8.88 8.88 0 0 1 51 31.28a1 1 0 0 0 0 2A10.75 10.75 0 0 0 57.58 31v5.1c-7 3.8-11.65 1.33-13.14.27a6.24 6.24 0 0 0 .27-1.78v-5.93a1 1 0 0 0-.16-.55 7.78 7.78 0 0 1-1.26-4.26 7.86 7.86 0 1 1 14.46 4.24Z"></path>
  <path fill="#1b212d" d="M48.25 20.44a1 1 0 0 0-1 1v1.73a1 1 0 0 0 2 0v-1.73a1 1 0 0 0-1-1zm5.5 0a1 1 0 0 0-1 1v1.73a1 1 0 0 0 2 0v-1.73a1 1 0 0 0-1-1z"></path>
</svg>
